<?xml version="1.0" standalone="no"?>
<!DOCTYPE svg PUBLIC "-//W3C//DTD SVG 20010904//EN"
 "http://www.w3.org/TR/2001/REC-SVG-20010904/DTD/svg10.dtd">
<svg version="1.0" xmlns="http://www.w3.org/2000/svg"
 width="1080.000000pt" height="1083.000000pt" viewBox="0 0 1080.000000 1083.000000"
 preserveAspectRatio="xMidYMid meet">

<g transform="translate(0.000000,1083.000000) scale(0.100000,-0.100000)"
fill="#000000" stroke="none">
<path d="M5302 10455 c-35 -8 -87 -21 -116 -29 -69 -20 -260 -116 -315 -157
-25 -19 -68 -52 -97 -74 -55 -42 -92 -86 -187 -222 -78 -111 -129 -226 -161
-363 -23 -102 -26 -136 -26 -296 0 -156 3 -196 25 -294 14 -63 31 -117 37
-121 18 -11 23 -2 9 15 -9 10 -10 25 -4 48 11 41 10 47 -5 76 -9 15 -9 22 -2
22 6 0 9 4 5 9 -3 5 -1 12 5 16 6 3 10 -4 10 -17 0 -13 4 -29 9 -36 6 -10 10
-8 15 10 6 22 7 22 20 5 19 -25 9 -49 -16 -41 -15 4 -19 2 -16 -7 3 -8 14 -13
25 -11 14 2 22 -4 27 -20 5 -19 8 -20 16 -8 6 9 6 18 0 24 -15 15 -12 26 4 20
10 -4 19 10 31 46 9 28 23 54 31 57 8 3 14 14 14 24 0 10 5 19 10 19 6 0 10 4
10 9 0 14 45 61 59 61 6 0 10 5 8 11 -1 6 3 13 8 15 6 2 11 -5 12 -17 2 -29
18 -43 37 -36 10 4 13 13 10 24 -5 14 -4 15 4 4 9 -12 13 -12 26 -2 8 7 24 10
36 6 17 -5 20 -2 20 19 0 16 6 26 15 26 8 0 15 -4 15 -10 0 -5 9 -10 19 -10
14 0 18 5 14 19 -4 15 3 22 31 32 33 12 41 20 37 42 -1 7 49 12 79 8 19 -2 63
-7 93 -9 18 -2 19 -4 7 -12 -8 -5 -12 -10 -7 -11 26 -5 34 -4 50 4 22 10 47
-7 47 -34 0 -11 7 -19 15 -19 8 0 15 -9 15 -20 0 -11 0 -23 1 -27 0 -5 -10
-11 -23 -15 -15 -4 -17 -6 -6 -7 29 -2 32 -39 5 -67 -19 -19 -31 -23 -55 -18
-18 4 -29 10 -27 14 3 5 -6 3 -19 -3 -15 -7 -22 -17 -18 -26 4 -11 1 -13 -12
-8 -10 4 -22 7 -27 7 -4 0 -6 6 -3 14 3 8 1 17 -5 21 -6 3 -11 1 -11 -4 0 -21
-15 -11 -28 19 -15 33 -37 41 -29 11 3 -14 0 -17 -14 -14 -11 3 -22 9 -25 14
-3 5 -16 9 -30 9 -13 0 -24 4 -24 9 0 6 -8 9 -17 9 -10 -1 -35 2 -55 6 -33 6
-38 4 -38 -12 0 -23 -35 -56 -49 -48 -6 4 -29 -12 -52 -34 -23 -23 -45 -36
-48 -31 -10 15 -27 -1 -35 -31 -3 -16 -11 -28 -16 -28 -6 0 -10 -9 -10 -19 0
-11 -4 -22 -9 -25 -4 -3 -11 -25 -15 -48 -4 -23 -12 -48 -18 -55 -14 -18 -19
-262 -4 -285 13 -21 46 -24 46 -4 0 14 45 31 59 21 18 -11 18 -44 0 -61 -10
-9 -16 -21 -13 -25 3 -5 -1 -7 -8 -4 -14 5 -45 -51 -34 -62 3 -3 1 -12 -6 -20
-6 -8 -12 -42 -14 -76 -2 -43 -7 -65 -19 -73 -9 -7 -14 -17 -11 -23 4 -5 -3
-16 -14 -24 -19 -13 -19 -16 -5 -50 9 -23 11 -38 5 -42 -11 -7 -13 -3 -34 80
-54 215 -56 231 -56 366 l0 135 -35 -4 c-56 -7 -85 -49 -85 -125 0 -34 9 -90
20 -123 21 -69 133 -299 151 -309 18 -12 65 -129 124 -313 43 -132 118 -263
240 -417 70 -88 84 -115 91 -168 14 -120 27 -193 39 -227 7 -21 16 -64 20 -96
3 -33 18 -92 32 -133 32 -92 28 -145 -14 -178 -27 -22 -28 -22 -35 -3 -10 28
-31 26 -23 -2 6 -22 6 -22 -14 2 -11 14 -21 32 -21 40 0 8 -5 22 -10 30 -7 11
-10 -2 -10 -42 0 -54 2 -60 40 -96 36 -34 54 -42 153 -66 62 -15 158 -43 214
-62 139 -46 215 -51 383 -26 74 12 196 26 270 32 248 19 334 43 424 114 50 40
176 212 176 240 -1 20 -1 20 -15 -4 -8 -14 -14 -19 -15 -12 0 6 -5 12 -11 12
-7 0 -9 -9 -6 -21 7 -25 -10 -66 -29 -73 -20 -8 -17 8 6 29 20 18 28 41 11 31
-5 -3 -12 9 -17 27 l-8 32 -3 -42 c-2 -24 -9 -43 -15 -43 -5 0 -8 7 -4 15 3 9
-3 20 -14 27 -11 7 -20 16 -20 21 0 4 4 6 9 2 17 -10 20 11 12 66 -6 37 -5 56
2 61 7 4 7 11 -2 22 -18 21 -10 59 15 70 16 7 20 18 19 57 -1 27 -5 52 -9 56
-4 4 -5 -4 -1 -20 5 -17 3 -27 -4 -27 -12 0 -15 51 -5 87 4 14 11 20 21 16 12
-5 13 1 8 33 -4 22 -11 53 -15 69 -11 37 -26 289 -22 370 1 33 20 125 42 205
21 80 46 190 55 245 11 65 23 107 35 120 10 11 23 32 29 47 8 22 7 29 -7 37
-19 11 -13 21 15 25 20 3 20 6 8 53 -4 19 -16 35 -27 39 -10 3 -18 9 -16 12
39 78 50 104 60 142 l13 45 3 -52 c2 -35 -2 -60 -13 -76 -12 -18 -13 -31 -6
-50 17 -43 29 -39 41 16 6 28 18 79 25 112 36 158 39 182 28 255 -17 106 -56
138 -106 85 -12 -14 -33 -27 -46 -30 -18 -3 -22 0 -19 18 2 12 8 21 14 20 6
-1 22 9 35 23 18 19 20 27 10 37 -9 9 -14 9 -21 -3 -5 -8 -12 -11 -16 -8 -3 4
-6 132 -5 285 1 161 -3 299 -9 328 -6 28 -12 59 -14 70 -24 154 -176 393 -312
492 -37 26 -99 73 -138 104 -158 125 -289 189 -429 211 -115 18 -362 19 -435
3z m518 -272 c110 -2 269 -20 295 -31 11 -5 32 -15 46 -22 15 -6 37 -31 49
-54 13 -22 27 -43 31 -46 10 -7 41 -122 34 -128 -2 -2 -15 -2 -29 2 -19 5 -23
11 -18 28 3 14 2 19 -6 14 -7 -4 -12 -13 -12 -20 0 -8 -7 -19 -15 -26 -9 -7
-14 -19 -11 -27 3 -7 1 -13 -5 -13 -19 0 -21 -31 -4 -50 16 -17 16 -20 2 -20
-8 0 -17 6 -20 13 -3 7 -9 0 -15 -15 -8 -20 -16 -26 -28 -21 -12 4 -15 2 -12
-8 3 -8 11 -13 17 -11 15 3 14 -15 -1 -21 -10 -4 -9 -8 2 -16 12 -9 12 -14 -7
-39 -24 -33 -24 -68 1 -66 23 2 20 -37 -4 -43 -18 -5 -18 -6 -3 -30 22 -34 23
-72 1 -78 -11 -4 -15 -13 -13 -27 3 -12 -1 -26 -8 -30 -8 -5 -7 -8 6 -8 9 0
17 -5 17 -10 0 -6 11 -15 24 -20 14 -5 26 -19 28 -32 2 -14 11 -24 23 -26 17
-3 17 -1 5 7 -11 8 -12 11 -2 11 19 0 72 -55 72 -74 0 -15 -12 -21 -34 -17 -5
1 -13 -4 -17 -11 -7 -10 -11 -10 -21 3 -24 30 -88 47 -143 39 -96 -15 -125
-23 -125 -32 0 -6 -9 -8 -20 -5 -11 3 -35 -2 -53 -11 -18 -9 -52 -15 -76 -14
-24 1 -49 -2 -55 -7 -6 -4 -19 -11 -28 -14 -12 -4 -15 -2 -11 10 5 12 1 14
-18 8 -13 -5 -35 -9 -49 -10 -14 -2 -33 -6 -44 -10 -15 -7 -17 -5 -12 13 10
37 16 68 10 55 -3 -7 -12 -13 -20 -13 -8 0 -15 6 -15 13 -1 6 -5 -4 -9 -23 -6
-34 -7 -34 -16 -11 -12 29 -74 59 -74 36 0 -8 -4 -15 -10 -15 -5 0 -10 7 -10
15 0 7 -7 18 -15 22 -10 6 -11 13 -5 23 8 12 12 12 18 2 7 -10 11 -10 22 3 10
13 9 15 -7 15 -12 0 -19 7 -19 20 0 11 6 20 13 20 20 0 15 18 -6 25 -38 12
-31 33 17 57 26 12 52 21 59 20 6 -1 15 3 19 9 5 9 -4 10 -32 6 -21 -3 -31 -3
-21 0 28 8 16 37 -21 48 -32 9 -32 10 -26 59 6 53 14 75 14 38 0 -12 10 -26
21 -33 18 -9 19 -13 8 -21 -10 -6 -7 -8 11 -6 31 4 41 38 11 38 -12 0 -21 5
-21 10 0 16 30 24 43 11 19 -19 28 -12 10 8 -13 15 -21 18 -35 10 -14 -7 -23
-6 -34 6 -8 8 -14 16 -12 16 2 1 39 3 83 4 97 4 122 -6 77 -29 -17 -9 -34 -25
-37 -37 -4 -12 -12 -18 -21 -15 -7 3 -16 1 -19 -4 -3 -5 4 -12 15 -15 17 -5
19 -10 9 -21 -14 -17 -9 -17 25 -4 20 7 26 6 26 -4 0 -23 29 -27 49 -7 22 22
31 18 31 -13 1 -19 2 -19 11 -3 12 20 40 22 57 5 10 -10 14 -8 19 11 4 17 8
20 15 9 7 -9 8 -6 5 10 -5 19 -2 22 11 16 9 -3 26 -7 36 -9 11 -1 22 -7 24
-13 2 -7 8 -10 12 -7 5 3 6 13 3 21 -5 13 -1 15 14 10 12 -4 25 -1 33 9 10 12
10 15 -4 15 -10 0 -14 -4 -11 -10 3 -5 2 -10 -3 -10 -6 0 -12 7 -16 15 -3 10
1 15 13 15 10 0 29 9 42 21 13 11 31 18 41 16 10 -3 16 -1 12 4 -3 5 6 9 20 9
14 0 26 5 26 10 0 6 -9 10 -20 10 -22 0 -27 16 -7 23 6 2 9 8 5 12 -4 4 -13 3
-20 -2 -7 -6 -29 -13 -48 -16 l-35 -6 35 17 c33 15 34 16 11 20 -17 3 -20 6
-11 12 7 4 9 13 5 20 -5 8 -12 7 -26 -6 -10 -9 -19 -12 -19 -6 0 6 5 14 10 17
18 11 11 24 -12 21 -13 -1 -39 -10 -58 -18 -42 -19 -99 -21 -119 -5 -12 10
-13 8 -9 -15 5 -24 2 -28 -19 -28 -13 0 -32 7 -40 16 -9 8 -19 12 -22 7 -3 -5
-19 -10 -34 -11 -25 -2 -27 0 -16 19 15 28 -2 39 -60 39 -51 0 -52 -7 -1 -12
24 -3 36 -10 38 -22 6 -27 -12 -40 -35 -27 -16 11 -16 11 5 6 21 -6 22 -5 10
14 -15 25 -21 26 -38 6 -12 -14 -15 -14 -31 1 -12 11 -19 13 -19 5 0 -7 -5 -9
-11 -5 -15 9 -60 -17 -52 -30 4 -6 -1 -5 -10 3 -9 7 -17 20 -17 27 0 17 -27
18 -32 2 -3 -9 -9 -8 -21 4 -9 9 -17 21 -17 26 0 11 61 3 78 -11 9 -7 11 -6 6
7 -6 16 -10 18 -49 21 -64 6 -62 5 -37 15 24 10 29 25 9 33 -16 6 -38 -10 -61
-45 l-18 -28 26 0 c16 0 26 -5 26 -15 0 -9 -9 -15 -25 -15 -18 0 -23 -4 -19
-15 4 -8 1 -15 -5 -15 -12 0 -14 10 -11 52 2 32 -19 47 -35 25 -13 -18 -45
-23 -45 -8 0 5 7 11 15 15 8 3 15 11 14 18 0 10 -2 10 -6 1 -7 -18 -23 -16
-23 2 0 12 -7 14 -27 9 -16 -4 -32 -11 -37 -15 -15 -13 -26 -11 -26 5 0 8 -7
17 -16 20 -25 10 -54 7 -54 -5 0 -6 -11 -8 -28 -4 -21 4 -33 1 -48 -16 -15
-17 -16 -23 -5 -27 8 -3 -3 -12 -28 -24 -31 -14 -41 -24 -41 -42 0 -18 -8 -27
-30 -35 -16 -5 -31 -15 -31 -20 -1 -6 -2 -15 -3 -20 -3 -27 -113 -125 -122
-110 -4 6 0 15 7 20 11 7 11 9 -2 9 -22 0 -41 -24 -33 -43 3 -8 0 -18 -5 -22
-6 -3 -9 -11 -6 -16 4 -5 2 -9 -4 -9 -5 0 -13 5 -16 10 -9 15 -25 12 -25 -5 0
-8 5 -15 12 -15 7 0 5 -5 -5 -12 -9 -7 -18 -26 -21 -42 -3 -16 -9 -33 -14 -38
-5 -5 -5 -34 -1 -66 6 -40 4 -59 -4 -64 -9 -6 -9 -10 2 -17 9 -6 10 -11 2 -15
-6 -4 -11 -19 -11 -34 -1 -31 -24 -67 -38 -58 -6 3 -8 15 -5 26 3 11 0 20 -6
20 -12 0 -15 58 -4 86 6 16 7 16 14 -2 7 -18 8 -18 8 1 1 17 3 18 12 5 9 -12
9 -11 4 5 -15 41 -17 65 -6 65 7 0 9 5 5 11 -4 8 -9 7 -15 -2 -28 -45 -16 52
21 176 10 33 23 103 29 155 14 121 35 203 63 241 47 64 157 124 269 148 19 4
40 11 46 14 12 8 197 32 312 42 41 3 79 9 85 13 6 4 25 7 41 8 17 0 48 4 70 9
22 5 46 7 53 6 6 -1 12 3 12 10 0 6 7 8 16 5 9 -4 22 -2 28 2 6 5 47 15 91 22
44 6 87 16 95 20 8 5 19 5 25 2 5 -4 48 -7 95 -9z m488 -331 c2 -12 8 -22 14
-22 5 0 8 -7 5 -15 -4 -9 6 -23 25 -36 28 -20 29 -24 14 -34 -15 -12 -15 -13
1 -20 12 -5 14 -9 6 -12 -7 -3 -13 -11 -13 -19 0 -8 -7 -14 -15 -14 -9 0 -12
6 -8 15 3 9 -3 25 -13 37 -14 15 -15 22 -7 25 16 6 -12 64 -28 60 -13 -2 -20
28 -12 49 8 21 27 12 31 -14z m-1383 -62 c-27 -12 -43 -12 -25 0 8 5 22 9 30
9 10 0 8 -3 -5 -9z m245 -54 c0 -3 -4 -8 -10 -11 -5 -3 -10 -1 -10 4 0 6 5 11
10 11 6 0 10 -2 10 -4z m1245 -36 c3 -5 1 -10 -4 -10 -6 0 -11 5 -11 10 0 6 2
10 4 10 3 0 8 -4 11 -10z m-898 -16 c-3 -3 -12 -4 -19 -1 -8 3 -5 6 6 6 11 1
17 -2 13 -5z m123 -44 c0 -5 -5 -10 -11 -10 -5 0 -7 5 -4 10 3 6 8 10 11 10 2
0 4 -4 4 -10z m268 -24 c3 -3 -11 -6 -31 -6 -20 0 -38 4 -41 9 -6 10 62 6 72
-3z m-224 -42 c4 -9 4 -19 1 -22 -3 -3 -5 0 -5 6 0 7 -3 11 -7 11 -17 -3 -24
2 -18 11 9 15 22 12 29 -6z m716 -5 c0 -4 -7 -6 -15 -3 -8 4 -15 10 -15 15 0
4 7 6 15 3 8 -4 15 -10 15 -15z m-825 -9 c3 -5 -1 -10 -10 -10 -9 0 -13 5 -10
10 3 6 8 10 10 10 2 0 7 -4 10 -10z m45 -30 c0 -5 -4 -10 -10 -10 -5 0 -10 5
-10 10 0 6 5 10 10 10 6 0 10 -4 10 -10z m870 -60 c0 -5 -4 -10 -10 -10 -5 0
-10 5 -10 10 0 6 5 10 10 10 6 0 10 -4 10 -10z m-1923 -132 c-3 -7 -5 -2 -5
12 0 14 2 19 5 13 2 -7 2 -19 0 -25z m693 22 c0 -5 -4 -10 -10 -10 -5 0 -10 5
-10 10 0 6 5 10 10 10 6 0 10 -4 10 -10z m45 -20 c3 -5 -1 -10 -10 -10 -9 0
-13 5 -10 10 3 6 8 10 10 10 2 0 7 -4 10 -10z m63 -15 c-3 -3 -9 2 -12 12 -6
14 -5 15 5 6 7 -7 10 -15 7 -18z m-818 -5 c0 -5 -4 -10 -10 -10 -5 0 -10 5
-10 10 0 6 5 10 10 10 6 0 10 -4 10 -10z m407 4 c-3 -3 -12 -4 -19 -1 -8 3 -5
6 6 6 11 1 17 -2 13 -5z m40 0 c-3 -3 -12 -4 -19 -1 -8 3 -5 6 6 6 11 1 17 -2
13 -5z m-227 -48 c0 -3 -4 -8 -10 -11 -5 -3 -10 -1 -10 4 0 6 5 11 10 11 6 0
10 -2 10 -4z m100 -10 c0 -3 -4 -8 -10 -11 -5 -3 -10 -1 -10 4 0 6 5 11 10 11
6 0 10 -2 10 -4z m490 -56 c0 -5 -4 -10 -10 -10 -5 0 -10 5 -10 10 0 6 5 10
10 10 6 0 10 -4 10 -10z m1138 2 c7 -5 14 -26 16 -48 2 -21 9 -52 15 -67 6
-15 10 -31 10 -35 -1 -4 0 -9 1 -12 1 -3 3 -14 5 -25 15 -99 38 -227 55 -310
25 -115 25 -305 0 -328 -10 -10 -12 -8 -7 11 5 23 -8 32 -16 10 -2 -7 -3 19
-2 57 1 43 -5 97 -17 140 -11 39 -22 84 -25 100 -3 17 -10 35 -15 42 -5 7 -7
17 -3 22 3 6 -1 24 -10 40 -8 17 -15 48 -15 71 0 23 -4 39 -9 36 -5 -3 -11 18
-14 47 -2 28 -1 53 3 55 4 1 4 22 -1 45 -11 57 -11 89 0 82 5 -3 12 -1 16 5 3
5 2 10 -4 10 -5 0 -9 14 -9 30 1 32 5 35 26 22z m-107 -93 c12 -24 11 -29 -5
-29 -7 0 -19 13 -26 29 -6 16 -20 37 -31 47 -10 9 -19 24 -19 33 0 15 63 -47
81 -80z m-331 -119 c11 -7 1 -9 -35 -9 -40 1 -45 3 -25 9 35 11 43 11 60 0z
m-128 -110 c18 -45 13 -53 -35 -49 -17 1 -40 -2 -49 -6 -17 -7 -38 0 -38 13 0
4 15 16 33 27 17 10 38 27 45 37 19 26 25 23 44 -22z m207 31 c11 -7 7 -14
-20 -30 -41 -25 -53 -26 -45 -5 3 9 6 22 6 30 0 16 37 19 59 5z m-611 -71 c-3
-17 1 -31 7 -34 7 -2 15 -28 19 -57 4 -29 13 -67 21 -85 7 -18 17 -53 20 -77
4 -26 18 -56 36 -76 16 -19 29 -42 29 -52 0 -13 7 -19 24 -19 35 0 57 -10 49
-23 -4 -6 2 -8 15 -5 12 4 22 2 22 -3 0 -5 5 -9 12 -9 19 0 77 -50 93 -80 17
-32 20 -76 6 -84 -13 -9 -41 4 -41 18 0 14 -133 16 -146 3 -4 -4 -14 -7 -22
-7 -7 0 -25 -9 -39 -20 -14 -11 -29 -17 -34 -14 -5 3 -9 2 -9 -3 0 -10 -136
-10 -146 0 -5 4 -2 13 6 18 13 8 12 9 -2 7 -9 -2 -17 1 -16 6 0 10 -22 26 -37
26 -5 0 -4 -4 4 -9 9 -6 10 -11 2 -15 -6 -4 -16 -4 -21 -1 -6 4 -22 -1 -36
-10 -16 -10 -35 -14 -51 -11 -39 10 -95 -4 -100 -25 -9 -33 -23 -20 -23 20 0
48 40 101 76 101 13 0 24 4 24 8 0 4 12 9 28 10 15 1 29 7 31 13 6 19 89 93
106 95 6 1 15 2 22 3 9 1 11 39 9 149 -1 81 1 157 5 169 5 13 4 25 -2 29 -6 4
-6 11 2 20 6 8 9 17 6 21 -11 10 14 33 35 33 17 0 19 -5 16 -30z m-513 0 c-3
-5 -18 -10 -33 -10 -21 0 -24 2 -12 10 20 13 53 13 45 0z m1381 -14 c1 -1 5
-11 8 -23 6 -17 3 -23 -9 -23 -11 0 -15 -7 -13 -22 2 -14 -2 -22 -9 -20 -8 1
-13 -9 -13 -26 0 -16 -13 -43 -31 -65 -17 -20 -26 -37 -20 -37 6 0 11 -4 11
-10 0 -5 -8 -10 -17 -10 -13 0 -18 -9 -19 -30 -1 -17 3 -27 9 -23 6 4 8 -2 5
-15 -4 -12 -2 -22 2 -22 13 0 22 -37 15 -60 -3 -11 -15 -20 -26 -20 -10 0 -19
-6 -19 -14 0 -7 -8 -20 -17 -27 -15 -12 -16 -12 -10 4 11 30 -1 19 -24 -23
-22 -38 -39 -52 -39 -30 0 16 -27 12 -34 -5 -7 -18 -45 -20 -51 -2 -3 7 -24
12 -55 11 -27 0 -49 2 -48 5 3 29 -5 41 -25 41 -13 0 -32 9 -42 20 -10 11 -30
20 -45 20 -16 0 -41 13 -64 34 -31 27 -39 42 -43 80 -5 36 -9 46 -24 46 -26 0
-27 55 -1 65 23 9 102 12 102 3 0 -4 8 -7 18 -8 106 -4 163 -9 170 -14 5 -3
19 4 31 15 17 16 30 20 57 15 31 -6 34 -5 34 17 0 14 7 27 15 31 8 3 15 11 15
18 0 13 47 58 62 58 4 0 8 8 8 18 0 33 20 42 79 35 31 -3 57 -6 57 -7z m-1301
-48 c14 -6 25 -15 25 -20 0 -4 12 -8 26 -8 15 0 23 -4 19 -10 -4 -7 3 -9 19
-6 14 3 26 0 26 -5 0 -5 -21 -9 -47 -9 -27 -1 -68 -5 -91 -9 -41 -8 -43 -8
-38 13 3 11 6 31 6 44 0 25 16 28 55 10z m-188 -74 c-9 -9 -67 16 -67 28 0 6
7 8 15 4 8 -3 15 0 15 7 0 6 10 2 22 -10 12 -13 19 -25 15 -29z m1740 -186
c-3 -7 -5 -2 -5 12 0 14 2 19 5 13 2 -7 2 -19 0 -25z m-1917 -3 c0 -8 -4 -15
-10 -15 -5 0 -7 7 -4 15 4 8 8 15 10 15 2 0 4 -7 4 -15z m1852 -158 c18 -27
12 -87 -11 -104 -21 -16 -34 -16 -28 0 2 6 9 12 15 12 20 0 22 12 7 41 -16 32
-20 74 -6 74 5 0 15 -10 23 -23z m-1507 -8 c10 -15 -1 -23 -20 -15 -9 3 -13
10 -10 16 8 13 22 13 30 -1z m-45 -39 c0 -16 -2 -30 -4 -30 -2 0 -6 14 -8 30
-3 17 -1 30 4 30 4 0 8 -13 8 -30z m60 -12 c0 -5 -11 -8 -25 -8 -14 0 -25 4
-25 9 0 5 11 8 25 7 14 0 25 -4 25 -8z m918 -90 c7 -6 10 -13 8 -16 -12 -11
17 -42 39 -42 18 0 25 -5 25 -20 0 -17 3 -19 19 -10 22 11 37 -2 26 -21 -4 -6
2 -17 14 -25 12 -8 21 -21 21 -27 0 -7 -7 -4 -14 6 -16 21 -30 23 -23 2 4 -8
2 -17 -4 -20 -5 -4 -12 1 -15 9 -8 20 -20 20 -28 0 -3 -8 1 -22 9 -31 9 -8 23
-29 32 -46 l17 -32 7 25 c4 16 7 19 8 8 1 -10 7 -18 14 -19 6 0 3 -4 -8 -8
-12 -5 -28 -4 -40 2 -11 6 -23 10 -27 9 -5 -1 -8 5 -8 13 0 9 -9 15 -24 15
-13 0 -31 3 -40 6 -11 4 -16 0 -17 -12 0 -16 -2 -15 -9 4 -10 24 -26 29 -32
10 -3 -9 -12 -7 -33 6 -20 13 -30 16 -33 7 -3 -9 -8 -9 -17 -1 -7 6 -17 10
-21 9 -39 -7 -63 24 -29 37 8 4 15 15 15 25 0 11 7 19 16 19 8 0 12 4 9 10 -7
11 23 2 43 -13 18 -14 15 8 -3 23 -8 7 -15 21 -15 32 0 11 7 26 15 34 8 9 15
25 15 36 0 18 4 19 38 13 20 -4 43 -12 50 -17z m-233 -322 c11 -2 27 -5 36 -5
9 -1 19 -7 22 -15 5 -12 -15 -14 -111 -14 l-117 -1 29 26 c29 25 59 27 141 9z
m-195 -36 c0 -5 -15 -9 -32 -9 l-33 1 30 8 c17 4 31 8 33 9 1 0 2 -3 2 -9z
m180 -66 c0 -8 -5 -12 -10 -9 -6 4 -8 11 -5 16 9 14 15 11 15 -7z m144 -33 c3
-5 22 -5 42 -1 31 7 36 6 43 -13 5 -12 5 -33 1 -47 -4 -14 -5 -30 -3 -36 2 -7
-11 -13 -32 -16 -27 -3 -35 0 -35 12 0 9 -3 11 -8 5 -4 -6 -32 -19 -62 -29
-30 -10 -60 -23 -66 -28 -7 -5 -56 -11 -110 -13 -55 -3 -111 -7 -126 -9 -16
-2 -28 0 -28 5 0 5 -9 9 -20 9 -11 0 -20 -5 -20 -11 0 -14 -25 -6 -26 9 -1 7
-2 16 -3 22 -2 15 -31 0 -31 -16 0 -8 -5 -14 -11 -14 -6 0 -10 10 -9 23 4 39
0 57 -10 57 -5 0 -10 -15 -10 -32 0 -24 -3 -29 -9 -19 -8 12 -12 12 -24 2 -10
-8 -17 -9 -22 -1 -3 5 1 10 9 10 16 0 31 34 21 49 -3 6 -13 8 -23 4 -12 -4
-10 0 5 11 17 12 31 14 67 7 25 -4 47 -5 48 0 2 4 43 10 91 13 49 3 123 14
165 25 110 29 187 38 196 22z m173 -47 c-3 -3 -12 -4 -19 -1 -8 3 -5 6 6 6 11
1 17 -2 13 -5z m-63 -19 c-4 -8 -8 -15 -10 -15 -2 0 -4 7 -4 15 0 8 4 15 10
15 5 0 7 -7 4 -15z m56 -15 c8 -5 10 -10 5 -10 -6 0 -16 -13 -22 -30 -6 -16
-18 -30 -26 -30 -13 0 -14 6 -7 30 5 17 6 30 4 30 -3 0 -2 5 1 10 8 13 26 13
45 0z m-45 -229 c3 -5 1 -12 -5 -16 -5 -3 -10 1 -10 9 0 18 6 21 15 7z m-49
-44 c-3 -13 0 -17 10 -13 20 8 18 -18 -3 -36 -16 -13 -45 -27 -58 -28 -3 0
-19 -7 -35 -15 -27 -14 -63 -18 -139 -16 -23 1 -23 2 -8 19 10 10 17 29 17 41
0 12 4 20 9 16 5 -3 12 -1 15 4 3 5 15 7 26 4 15 -4 19 -2 14 10 -6 16 15 23
91 29 61 6 66 5 61 -15z m41 -39 c-3 -8 -6 -5 -6 6 -1 11 2 17 5 13 3 -3 4
-12 1 -19z m-277 -17 c0 -26 -55 -58 -66 -39 -4 6 -3 8 4 4 16 -10 27 15 11
25 -12 8 -12 10 0 18 14 9 51 3 51 -8z m718 -460 c3 -8 -1 -12 -9 -9 -7 2 -15
10 -17 17 -3 8 1 12 9 9 7 -2 15 -10 17 -17z m22 -47 c0 -8 -5 -12 -10 -9 -6
4 -8 11 -5 16 9 14 15 11 15 -7z m13 -189 c-3 -9 -8 -14 -10 -11 -3 3 -2 9 2
15 9 16 15 13 8 -4z m-1468 -85 c10 -11 16 -20 13 -20 -3 0 -13 9 -23 20 -10
11 -16 20 -13 20 3 0 13 -9 23 -20z"/>
<path d="M6116 9844 c-4 -9 -4 -19 -2 -21 8 -8 26 8 26 23 0 19 -16 18 -24 -2z"/>
<path d="M5342 9819 c2 -7 10 -15 17 -17 8 -3 12 1 9 9 -2 7 -10 15 -17 17 -8
3 -12 -1 -9 -9z"/>
<path d="M5511 9804 c0 -11 3 -14 6 -6 3 7 2 16 -1 19 -3 4 -6 -2 -5 -13z"/>
<path d="M5956 9807 c3 -10 9 -15 12 -12 3 3 0 11 -7 18 -10 9 -11 8 -5 -6z"/>
<path d="M4705 9681 c-3 -5 -1 -12 5 -16 5 -3 10 1 10 9 0 18 -6 21 -15 7z"/>
<path d="M4670 9600 c0 -5 5 -10 11 -10 5 0 7 5 4 10 -3 6 -8 10 -11 10 -2 0
-4 -4 -4 -10z"/>
<path d="M5938 9580 c2 -16 8 -28 12 -25 9 5 1 55 -9 55 -4 0 -6 -13 -3 -30z"/>
<path d="M5920 9530 c0 -5 9 -10 20 -10 11 0 20 5 20 10 0 6 -9 10 -20 10 -11
0 -20 -4 -20 -10z"/>
<path d="M4550 9511 c0 -5 5 -13 10 -16 6 -3 10 -2 10 4 0 5 -4 13 -10 16 -5
3 -10 2 -10 -4z"/>
<path d="M5527 9471 c-10 -12 -5 -13 36 -9 26 3 50 1 53 -4 6 -9 23 8 24 22 0
12 -103 4 -113 -9z"/>
<path d="M5488 9263 c7 -3 16 -2 19 1 4 3 -2 6 -13 5 -11 0 -14 -3 -6 -6z"/>
<path d="M6570 8336 c0 -31 6 -34 13 -6 3 11 1 23 -4 26 -5 3 -9 -6 -9 -20z"/>
<path d="M6070 8106 c0 -2 7 -9 15 -16 9 -7 15 -8 15 -2 0 5 -7 12 -15 16 -8
3 -15 4 -15 2z"/>
<path d="M5419 7671 c7 -5 10 -14 7 -20 -4 -6 -2 -11 3 -11 6 0 11 9 11 20 0
12 -7 20 -17 20 -14 0 -15 -2 -4 -9z"/>
<path d="M5078 9333 c7 -3 16 -2 19 1 4 3 -2 6 -13 5 -11 0 -14 -3 -6 -6z"/>
<path d="M4963 9237 c-16 -9 -20 -16 -13 -27 8 -13 10 -12 10 4 0 13 5 16 18
11 25 -10 24 -10 60 -1 21 5 38 4 46 -3 7 -6 21 -8 30 -5 14 5 12 10 -14 22
-25 12 -36 13 -51 4 -23 -15 -49 -16 -49 -2 0 13 -10 12 -37 -3z"/>
<path d="M5218 9219 c-19 -11 -24 -29 -8 -29 5 0 14 9 20 20 12 23 12 23 -12
9z"/>
<path d="M4460 8856 c0 -15 4 -25 9 -22 10 7 9 31 -2 42 -4 4 -7 -5 -7 -20z"/>
<path d="M4460 8780 c0 -5 5 -10 11 -10 5 0 7 5 4 10 -3 6 -8 10 -11 10 -2 0
-4 -4 -4 -10z"/>
<path d="M4630 8495 c0 -8 2 -15 4 -15 2 0 6 7 10 15 3 8 1 15 -4 15 -6 0 -10
-7 -10 -15z"/>
<path d="M6610 6838 c0 -9 5 -20 10 -23 13 -8 13 5 0 25 -8 13 -10 13 -10 -2z"/>
<path d="M6658 6724 c-4 -4 -5 -18 -2 -30 4 -13 2 -24 -4 -24 -5 0 -7 -12 -4
-26 3 -18 1 -25 -6 -20 -6 3 -12 1 -14 -6 -3 -7 -7 -5 -11 6 -4 10 -3 15 3 11
6 -3 10 -3 11 2 0 4 2 20 4 36 2 15 2 27 1 27 -2 0 -32 -36 -67 -81 -35 -44
-80 -94 -102 -111 -21 -17 -36 -32 -33 -35 4 -4 97 42 175 87 58 33 62 41 59
109 -2 35 -6 59 -10 55z"/>
<path d="M5865 5191 c-3 -5 -1 -12 5 -16 5 -3 10 1 10 9 0 18 -6 21 -15 7z"/>
<path d="M5608 5183 c6 -2 18 -2 25 0 6 3 1 5 -13 5 -14 0 -19 -2 -12 -5z"/>
<path d="M5350 5121 c0 -6 4 -13 10 -16 6 -3 7 1 4 9 -7 18 -14 21 -14 7z"/>
<path d="M5370 5081 c0 -5 5 -13 10 -16 6 -3 10 -2 10 4 0 5 -4 13 -10 16 -5
3 -10 2 -10 -4z"/>
<path d="M5482 4990 c0 -19 2 -27 5 -17 2 9 2 25 0 35 -3 9 -5 1 -5 -18z"/>
<path d="M5571 4975 c0 -17 -6 -36 -13 -43 -9 -9 -9 -12 0 -12 14 0 26 41 19
67 -3 11 -5 6 -6 -12z"/>
<path d="M5780 4971 c0 -6 4 -13 10 -16 6 -3 7 1 4 9 -7 18 -14 21 -14 7z"/>
<path d="M5835 4959 c-4 -6 -5 -12 -2 -15 2 -3 7 2 10 11 7 17 1 20 -8 4z"/>
<path d="M5806 4915 c-3 -9 -6 -26 -5 -38 1 -16 4 -12 10 12 10 34 6 55 -5 26z"/>
<path d="M5508 4913 c7 -3 16 -2 19 1 4 3 -2 6 -13 5 -11 0 -14 -3 -6 -6z"/>
<path d="M6263 4495 c0 -98 2 -113 6 -62 3 38 3 96 0 130 -4 43 -6 22 -6 -68z"/>
<path d="M4317 4501 c-4 -17 -3 -21 5 -13 5 5 8 16 6 23 -3 8 -7 3 -11 -10z"/>
<path d="M5816 4454 c-4 -9 -4 -19 -1 -22 2 -3 7 3 11 12 4 9 4 19 1 22 -2 3
-7 -3 -11 -12z"/>
<path d="M6382 4424 c-1 -23 -4 -63 -7 -90 l-4 -49 9 45 c6 25 9 65 7 90 l-3
45 -2 -41z"/>
<path d="M4402 4430 c0 -14 2 -19 5 -12 2 6 2 18 0 25 -3 6 -5 1 -5 -13z"/>
<path d="M5841 4384 c0 -11 3 -14 6 -6 3 7 2 16 -1 19 -3 4 -6 -2 -5 -13z"/>
<path d="M4803 4295 c0 -38 2 -53 4 -32 2 20 2 52 0 70 -2 17 -4 1 -4 -38z"/>
<path d="M6251 4334 c0 -11 3 -14 6 -6 3 7 2 16 -1 19 -3 4 -6 -2 -5 -13z"/>
<path d="M6241 4298 c0 -9 -4 -25 -7 -35 -5 -17 -5 -17 6 0 6 10 9 25 7 35 -4
15 -5 15 -6 0z"/>
<path d="M6332 4198 c-29 -92 -77 -200 -115 -256 -16 -24 -27 -46 -24 -48 18
-18 150 258 164 342 9 54 0 40 -25 -38z"/>
<path d="M4236 4235 c-9 -26 -7 -32 5 -12 6 10 9 21 6 23 -2 3 -7 -2 -11 -11z"/>
<path d="M4081 4174 c0 -11 3 -14 6 -6 3 7 2 16 -1 19 -3 4 -6 -2 -5 -13z"/>
<path d="M4196 4143 c-6 -14 -5 -15 5 -6 7 7 10 15 7 18 -3 3 -9 -2 -12 -12z"/>
<path d="M4170 4105 c-7 -9 -11 -17 -9 -20 3 -2 10 5 17 15 14 24 10 26 -8 5z"/>
<path d="M4363 4083 c-30 -6 -53 -40 -53 -80 0 -24 7 -37 29 -52 52 -37 109
-21 115 33 4 31 -14 43 -41 27 -17 -10 -17 -10 0 -11 21 0 23 -38 2 -46 -26
-10 -65 5 -76 30 -9 18 -7 31 6 56 16 30 20 32 56 27 42 -5 54 7 17 17 -13 3
-25 5 -28 5 -3 -1 -15 -4 -27 -6z"/>
<path d="M4510 4085 c0 -3 11 -28 25 -56 14 -27 23 -54 20 -58 -6 -11 4 -41
15 -41 4 0 10 15 13 34 3 19 17 53 32 76 33 53 23 66 -16 20 -31 -37 -31 -37
-60 13 -9 16 -29 24 -29 12z"/>
<path d="M4697 4083 c-3 -5 -8 -41 -12 -80 -7 -69 -6 -73 13 -73 31 0 74 18
88 38 8 9 14 33 14 53 0 32 -4 39 -34 53 -37 17 -62 20 -69 9z m67 -29 c19 -7
22 -67 4 -81 -20 -16 -57 -22 -64 -11 -3 5 -3 29 1 54 6 45 19 53 59 38z"/>
<path d="M3040 4070 c0 -5 5 -10 12 -12 9 -3 9 -6 1 -11 -6 -4 -18 -1 -26 7
-18 18 -31 8 -16 -11 8 -9 8 -13 1 -13 -7 0 -11 -24 -10 -60 0 -33 4 -57 9
-55 4 3 12 -2 17 -11 7 -13 20 -10 95 27 72 36 84 45 69 53 -9 6 -21 11 -27
11 -27 3 -45 18 -36 29 8 9 -3 18 -39 33 -28 12 -50 18 -50 13z"/>
<path d="M4885 4070 c3 -5 8 -10 11 -10 2 0 4 5 4 10 0 6 -5 10 -11 10 -5 0
-7 -4 -4 -10z"/>
<path d="M4974 4056 c-10 -8 -15 -18 -11 -23 5 -4 13 0 18 10 16 27 57 22 65
-9 7 -29 -7 -44 -43 -44 -14 0 -23 6 -23 15 0 8 -4 15 -10 15 -5 0 -10 -4 -10
-8 0 -17 25 -32 52 -32 30 0 33 -6 19 -30 -14 -21 -1 -34 14 -13 53 76 -2 169
-71 119z"/>
<path d="M6376 4033 c-6 -14 -5 -15 5 -6 7 7 10 15 7 18 -3 3 -9 -2 -12 -12z"/>
<path d="M4260 4029 c0 -5 5 -7 10 -4 6 3 10 8 10 11 0 2 -4 4 -10 4 -5 0 -10
-5 -10 -11z"/>
<path d="M4887 4014 c-4 -4 -7 -26 -6 -48 l1 -41 9 39 c10 42 8 62 -4 50z"/>
<path d="M2912 3998 c-18 -18 -15 -46 7 -57 23 -13 31 -33 24 -60 -7 -29 -28
-26 -66 9 -32 29 -51 33 -27 5 12 -15 7 -47 -7 -43 -4 1 -21 -5 -38 -14 l-30
-17 45 5 c68 8 143 23 158 33 12 7 11 13 -1 37 -8 16 -18 48 -22 72 -7 42 -21
52 -43 30z"/>
<path d="M6357 3993 c-4 -3 -7 -11 -7 -17 0 -6 5 -5 12 2 6 6 9 14 7 17 -3 3
-9 2 -12 -2z"/>
<path d="M3220 3980 c0 -5 6 -10 14 -10 8 0 18 5 21 10 3 6 -3 10 -14 10 -12
0 -21 -4 -21 -10z"/>
<path d="M8285 3970 c3 -5 13 -10 22 -10 24 0 183 -71 183 -82 0 -4 8 -5 18
-1 9 3 14 2 10 -2 -5 -5 2 -13 14 -19 11 -6 26 -20 32 -30 6 -11 23 -30 38
-43 16 -14 25 -30 21 -38 -3 -8 0 -15 6 -15 6 0 11 -9 11 -21 0 -11 5 -17 10
-14 6 4 8 11 5 16 -4 5 -1 9 4 9 6 0 11 -4 11 -9 0 -16 -28 -62 -36 -61 -5 1
-10 -3 -12 -9 -2 -6 2 -11 10 -11 18 1 48 25 48 39 0 6 5 11 10 11 11 0 13
-11 4 -34 -3 -9 -15 -16 -25 -16 -11 0 -19 -7 -19 -16 0 -8 -5 -12 -11 -9 -5
4 -15 -7 -22 -24 -6 -18 -19 -31 -31 -33 -27 -4 -32 -35 -10 -59 16 -18 16
-21 2 -35 -12 -12 -20 -14 -36 -5 -16 9 -21 7 -27 -6 -3 -10 -2 -19 3 -21 5
-1 17 -9 28 -16 16 -12 17 -18 6 -40 -7 -15 -12 -36 -12 -46 0 -11 -4 -20 -9
-20 -10 0 -21 34 -21 68 0 12 -4 22 -9 22 -5 0 -11 -28 -13 -62 -3 -34 -10
-64 -16 -66 -8 -2 -8 -12 3 -32 18 -35 19 -44 4 -34 -18 11 -29 -17 -29 -72 0
-44 -3 -52 -25 -64 -25 -13 -26 -17 -21 -84 3 -40 2 -55 -2 -36 l-7 35 -30
-30 c-24 -24 -27 -30 -14 -33 23 -4 12 -42 -12 -42 -14 0 -19 -7 -19 -30 0
-23 -5 -30 -19 -30 -26 0 -36 17 -14 23 13 3 10 6 -12 12 -16 5 -36 15 -44 22
-7 8 -18 12 -24 10 -17 -5 -76 -89 -76 -108 -1 -9 -8 -20 -17 -23 -9 -3 -14
-13 -10 -21 3 -8 1 -17 -5 -21 -6 -3 -7 -13 -4 -23 4 -9 9 -39 11 -68 l3 -52
-36 -7 c-23 -4 -37 -13 -40 -25 -3 -11 -9 -19 -12 -19 -4 0 -6 -13 -3 -29 l4
-28 -51 5 c-42 4 -51 2 -51 -12 0 -9 -4 -16 -10 -16 -5 0 -10 9 -10 20 0 11
-7 23 -15 26 -18 7 -20 34 -3 34 9 0 8 3 -1 12 -11 11 -14 11 -18 1 -3 -7 -12
-13 -21 -13 -15 -1 -15 -2 1 -14 9 -7 17 -18 17 -24 0 -17 -48 -26 -65 -12 -8
6 -18 9 -24 6 -10 -7 -24 22 -16 34 6 10 -63 25 -72 16 -4 -3 3 -6 15 -6 30 0
28 -18 -4 -26 -18 -5 -22 -10 -15 -17 20 -20 11 -33 -23 -35 -26 -2 -35 2 -39
18 -3 11 -9 20 -14 19 -25 -4 -34 2 -28 21 8 24 -19 28 -44 6 -9 -7 -39 -16
-67 -19 l-51 -6 0 30 c0 21 4 28 14 25 21 -9 11 71 -11 87 -10 7 -16 19 -14
27 2 8 -7 19 -19 24 -27 13 -35 43 -27 97 7 39 6 41 -14 34 -17 -5 -21 -3 -16
9 8 20 -21 32 -39 17 -9 -7 -17 -7 -24 0 -7 7 -14 5 -22 -5 -19 -23 -4 -38 31
-31 22 5 28 4 23 -4 -4 -7 -2 -18 5 -26 8 -10 8 -15 0 -20 -11 -7 -30 0 -82
26 -14 7 -18 5 -18 -11 0 -13 -7 -20 -20 -20 -11 0 -20 7 -20 15 0 8 5 15 11
15 6 0 9 7 5 15 -3 10 1 15 13 15 26 0 31 10 18 31 -8 13 -23 19 -49 19 -26 0
-38 5 -41 18 -4 13 -5 11 -6 -5 -1 -17 5 -23 22 -23 20 -1 20 -2 4 -11 -15 -9
-16 -13 -6 -25 11 -13 8 -14 -17 -8 -16 4 -46 15 -66 24 l-37 18 -3 -32 c-4
-38 -26 -44 -56 -15 -16 15 -30 19 -48 15 -24 -6 -34 8 -11 17 9 4 8 8 -3 16
-22 16 -30 13 -30 -10 0 -12 -4 -17 -11 -14 -14 9 -44 -20 -59 -56 -13 -30
-34 -35 -36 -8 -1 8 -2 18 -3 24 0 5 -6 4 -13 -3 -16 -16 -28 -15 -28 3 0 9
-9 15 -24 15 -13 0 -26 7 -30 15 -7 19 -60 20 -76 1 -6 -8 -18 -12 -26 -9 -10
4 -17 -2 -21 -16 -5 -19 -33 -31 -33 -13 0 4 -14 15 -30 24 -17 9 -30 24 -30
32 0 20 -40 30 -95 24 -32 -4 -53 -14 -75 -37 -39 -38 -57 -39 -71 -4 -7 20
-13 23 -21 15 -18 -18 -49 -14 -74 9 -22 21 -25 21 -70 6 -42 -13 -50 -14 -68
-1 -11 8 -34 14 -50 14 -16 0 -37 7 -47 16 -10 9 -30 16 -46 15 -15 0 -39 0
-52 -1 -13 0 -30 -8 -38 -17 -10 -13 -16 -15 -19 -5 -8 17 -31 15 -43 -5 -8
-16 -12 -16 -38 -3 -15 8 -33 21 -39 29 -10 12 -13 11 -19 -8 -9 -29 -26 -23
-47 19 -14 28 -18 31 -24 16 -4 -11 -1 -22 7 -27 10 -6 7 -9 -13 -9 -20 0 -27
6 -30 22 -3 26 -38 38 -38 14 0 -8 -9 -20 -20 -26 -11 -6 -20 -18 -21 -28 0
-14 -3 -13 -16 6 -8 12 -20 22 -26 22 -5 0 -15 8 -22 17 -11 15 -15 14 -37
-10 -45 -48 -67 -31 -38 29 19 39 19 40 0 133 -10 51 -21 95 -23 98 -3 2 -8
-26 -12 -64 -4 -37 -11 -76 -15 -88 -4 -11 -51 -77 -103 -147 -52 -70 -101
-143 -108 -162 -7 -20 -19 -36 -26 -36 -10 0 -12 17 -8 70 l4 71 -34 -6 c-19
-3 -51 -7 -70 -10 -24 -4 -61 3 -122 25 -48 16 -90 30 -94 30 -4 0 -10 -22
-14 -50 -4 -27 -11 -53 -17 -56 -13 -8 -16 -4 -22 31 -3 17 -10 55 -16 86 -6
30 -19 81 -30 112 -11 32 -23 84 -27 117 -4 44 -10 60 -21 60 -11 0 -13 8 -8
32 6 30 5 31 -10 17 -15 -16 -17 -42 -10 -201 0 -21 -3 -38 -9 -39 -5 0 -16
-5 -22 -11 -10 -8 -13 -5 -14 13 l-1 24 -8 -25 c-4 -14 -8 -18 -9 -9 -1 13
-19 17 -102 22 -56 4 -108 12 -115 18 -11 9 -18 9 -26 1 -14 -14 -87 -16 -107
-3 -9 6 -22 6 -32 0 -12 -6 -22 -4 -33 6 -19 19 -32 19 -40 0 -3 -9 -18 -15
-37 -15 -30 0 -31 2 -26 30 8 38 -9 87 -33 93 -10 2 -51 3 -92 2 -40 -1 -81 1
-90 6 -23 12 -148 16 -148 5 0 -6 -4 -6 -10 0 -7 7 -6 19 2 37 11 21 18 25 38
20 24 -6 24 -5 7 14 -9 11 -17 24 -17 29 0 5 -7 18 -15 28 -14 18 -15 18 -34
-5 -16 -19 -20 -20 -21 -8 0 21 32 41 88 57 37 11 42 16 42 42 0 15 3 35 6 44
5 13 -1 16 -32 16 -64 0 -82 -9 -95 -47 -12 -36 -32 -40 -37 -6 -5 36 -82 59
-82 24 0 -12 -9 -21 -24 -25 -14 -3 -27 -14 -31 -24 -3 -9 -12 -25 -19 -35
-12 -16 -16 -16 -42 -3 -32 17 -53 51 -47 76 4 15 10 16 40 8 37 -10 93 -2 93
13 0 5 -9 9 -20 9 -10 0 -31 5 -45 12 -21 9 -31 9 -46 0 -16 -10 -23 -10 -35
3 -9 8 -21 15 -28 15 -7 0 -19 11 -26 25 -7 14 -19 25 -27 25 -7 0 -13 9 -13
20 0 21 -24 27 -36 9 -8 -14 -76 -2 -86 15 -5 9 -21 11 -55 6 -45 -7 -73 -3
-45 7 17 6 15 33 -3 33 -8 0 -15 -7 -15 -15 0 -8 -7 -15 -16 -15 -11 0 -14 6
-9 20 5 14 2 20 -9 20 -11 0 -16 -9 -16 -30 0 -16 -4 -30 -10 -30 -5 0 -10
-11 -10 -25 0 -18 -7 -28 -25 -35 -14 -5 -25 -15 -25 -22 0 -6 -6 -3 -14 8
-13 16 -18 17 -35 7 -17 -11 -22 -10 -34 8 -14 20 -14 20 -20 0 -3 -11 0 -23
7 -26 6 -3 1 -3 -12 -1 -26 5 -73 -16 -109 -50 -14 -13 -30 -21 -35 -18 -4 3
-21 -7 -36 -23 -15 -15 -50 -48 -77 -73 -47 -42 -50 -48 -49 -91 1 -26 7 -56
14 -68 11 -22 11 -22 43 -3 18 10 61 29 97 42 76 27 90 36 90 60 0 10 10 20
22 23 30 8 37 -2 14 -19 -17 -12 -18 -14 -3 -14 21 0 22 -11 1 -36 -11 -13
-17 -15 -20 -7 -4 10 -12 9 -35 -3 -16 -8 -27 -19 -24 -24 7 -11 -30 -50 -47
-50 -51 0 -131 -59 -144 -107 -7 -24 21 -129 36 -138 6 -4 25 3 43 14 35 21
185 64 198 56 4 -3 14 4 22 16 11 15 16 17 20 7 2 -7 8 -1 12 15 4 15 14 27
24 27 13 0 13 -2 2 -9 -8 -5 -11 -16 -7 -26 7 -19 -11 -48 -25 -40 -4 3 -20
-10 -36 -30 -15 -19 -34 -35 -42 -35 -8 0 -22 -6 -30 -14 -9 -7 -27 -17 -41
-20 -19 -6 -21 -5 -10 3 25 18 2 12 -40 -9 -22 -11 -45 -19 -52 -18 -19 4 -14
-51 7 -96 25 -53 101 -128 158 -155 53 -26 68 -47 74 -106 7 -57 60 -265 84
-328 26 -67 135 -180 197 -204 38 -14 54 -15 120 -5 124 19 162 16 213 -17 37
-25 61 -31 144 -40 108 -11 556 -21 490 -10 -22 3 -31 7 -20 9 38 5 70 -2 89
-18 23 -21 204 -23 546 -4 448 24 522 37 850 147 183 62 578 165 631 165 9 0
24 6 31 14 12 11 21 11 54 1 102 -32 155 -46 227 -60 43 -8 89 -18 104 -21 18
-5 24 -4 19 5 -4 6 -1 11 8 11 9 0 16 -7 16 -15 0 -15 28 -21 79 -16 13 1 78
-9 145 -23 200 -42 297 -56 386 -56 89 0 347 17 390 26 14 3 74 8 134 11 97 5
109 4 103 -10 -4 -10 10 -30 42 -59 106 -97 107 -97 302 -124 168 -23 181 -17
239 102 22 46 47 103 56 126 8 24 27 61 41 82 19 29 28 60 34 115 9 87 25 140
102 336 62 157 114 321 150 471 14 56 32 114 40 130 7 16 19 56 25 89 31 162
65 327 83 390 28 103 26 111 -33 167 -107 100 -241 175 -367 207 -95 23 -115
26 -106 11z m355 -430 c0 -5 -2 -10 -4 -10 -3 0 -8 5 -11 10 -3 6 -1 10 4 10
6 0 11 -4 11 -10z m-5603 -225 c17 -19 31 -35 30 -36 -1 -1 -17 -2 -36 -4 -25
-2 -39 3 -52 19 -50 58 7 79 58 21z m53 -95 c0 -5 -4 -10 -10 -10 -5 0 -10 5
-10 10 0 6 5 10 10 10 6 0 10 -4 10 -10z m-390 -15 c0 -19 -9 -19 -34 0 -19
14 -19 15 7 15 17 0 27 -5 27 -15z m-140 -115 c0 -5 -5 -10 -11 -10 -5 0 -7 5
-4 10 3 6 8 10 11 10 2 0 4 -4 4 -10z m447 -20 c7 -8 13 -27 13 -41 0 -22 -5
-28 -30 -31 -16 -3 -30 0 -30 5 0 5 -6 7 -13 4 -8 -3 -43 2 -78 10 -36 8 -84
13 -111 9 -38 -4 -46 -2 -41 10 3 7 12 14 19 14 8 0 27 8 41 18 19 12 25 13
19 3 -7 -10 -5 -12 4 -6 44 27 186 31 207 5z m2633 -250 c0 -5 -4 -10 -10 -10
-5 0 -10 5 -10 10 0 6 5 10 10 10 6 0 10 -4 10 -10z m725 -15 c0 -26 -4 -29
-29 -19 -25 10 -20 44 7 44 17 0 22 -6 22 -25z m-525 -12 c0 -20 -3 -24 -11
-16 -7 7 -9 19 -6 27 10 24 17 19 17 -11z m800 -43 c0 -5 -5 -10 -11 -10 -5 0
-7 5 -4 10 3 6 8 10 11 10 2 0 4 -4 4 -10z m457 -6 c-3 -3 -12 -4 -19 -1 -8 3
-5 6 6 6 11 1 17 -2 13 -5z m246 -91 c-3 -7 -9 -13 -14 -13 -11 0 -12 34 -2
43 9 10 22 -13 16 -30z m17 -65 c0 -17 -2 -18 -15 -4 -8 8 -15 19 -15 25 0 6
7 8 15 5 8 -4 15 -15 15 -26z m-3 -74 c-3 -3 -12 -4 -19 -1 -8 3 -5 6 6 6 11
1 17 -2 13 -5z m393 -69 c0 -8 -7 -15 -15 -15 -16 0 -20 12 -8 23 11 12 23 8
23 -8z m-3040 -6 c0 -5 4 -8 8 -5 5 3 33 -1 63 -9 30 -7 71 -16 92 -19 44 -8
47 -23 10 -58 -74 -69 -120 -59 -175 39 -20 34 -23 63 -8 63 6 0 10 -5 10 -11z
m3260 -25 c0 -2 -7 -4 -15 -4 -8 0 -15 4 -15 10 0 5 7 7 15 4 8 -4 15 -8 15
-10z m-2449 -182 c-7 -2 -18 1 -23 6 -8 8 -4 9 13 5 13 -4 18 -8 10 -11z m304
-83 c18 -7 17 -8 -5 -8 -14 0 -38 6 -55 14 l-30 14 35 -6 c19 -3 44 -10 55
-14z m100 -39 c2 -4 -7 -5 -20 -2 -14 2 -25 8 -25 12 0 10 38 1 45 -10z m68
-17 c-7 -2 -19 -2 -25 0 -7 3 -2 5 12 5 14 0 19 -2 13 -5z m1482 -143 c-27
-12 -43 -12 -25 0 8 5 22 9 30 9 10 0 8 -3 -5 -9z m435 -28 c0 -5 14 -6 31 -4
23 3 30 1 24 -7 -4 -8 4 -24 21 -42 15 -16 23 -29 16 -29 -6 0 -14 5 -17 10
-3 6 -15 10 -26 10 -10 0 -36 16 -57 35 -34 31 -35 34 -14 35 12 0 22 -4 22
-8z m-3906 -157 c-7 -16 -24 -21 -24 -6 0 8 7 13 27 20 1 1 0 -6 -3 -14z"/>
<path d="M4965 3930 c3 -5 14 -10 23 -10 15 0 15 2 2 10 -20 13 -33 13 -25 0z"/>
<path d="M6300 3898 c-10 -18 -23 -37 -27 -43 -5 -5 -19 -26 -32 -45 -13 -19
-36 -47 -49 -62 -14 -15 -22 -31 -18 -35 4 -4 19 8 34 27 42 53 122 172 122
181 0 17 -11 9 -30 -23z"/>
<path d="M3600 3916 c0 -3 15 -15 33 -27 l32 -23 -24 27 c-22 24 -41 35 -41
23z"/>
<path d="M4543 3883 c-8 -3 0 -21 21 -51 19 -26 46 -74 61 -106 36 -75 80
-125 164 -180 63 -42 151 -81 151 -67 0 3 -38 30 -85 59 -131 83 -188 140
-234 236 -45 93 -61 116 -78 109z"/>
<path d="M4666 3828 c34 -68 131 -168 212 -218 78 -50 84 -28 6 25 -82 56
-178 154 -200 202 -10 23 -25 43 -32 43 -8 0 -3 -18 14 -52z"/>
<path d="M4836 3802 c82 -82 130 -117 139 -102 3 6 -2 13 -12 17 -20 7 -40 24
-121 101 -82 77 -87 63 -6 -16z"/>
<path d="M2659 3789 c-18 -35 4 -45 40 -18 39 28 39 34 1 37 -21 2 -32 -4 -41
-19z"/>
<path d="M5880 3739 c-65 -60 -149 -116 -205 -137 -17 -6 -24 -11 -18 -11 7
-1 41 10 75 24 47 19 85 46 148 105 47 43 81 79 75 79 -5 0 -39 -27 -75 -60z"/>
<path d="M2990 3775 c0 -8 0 -17 0 -20 0 -11 54 -8 58 3 2 7 -3 12 -12 12 -9
0 -16 5 -16 10 0 6 -7 10 -15 10 -8 0 -15 -7 -15 -15z"/>
<path d="M3750 3786 c0 -11 177 -146 193 -146 20 0 1 21 -60 67 -65 48 -133
89 -133 79z"/>
<path d="M5041 3735 c-8 -16 -17 -39 -21 -50 -4 -11 -13 -33 -19 -48 -10 -26
-8 -90 5 -154 5 -24 32 -32 38 -10 8 26 39 133 43 147 3 8 -4 4 -16 -10 -20
-25 -21 -25 -21 -3 0 12 -4 25 -10 28 -5 3 -10 -3 -10 -14 0 -11 -4 -23 -10
-26 -13 -8 -13 4 1 44 6 17 15 31 21 31 6 0 7 8 4 17 -4 9 -2 20 5 23 6 4 9
18 7 31 -4 23 -4 23 -17 -6z"/>
<path d="M5081 3728 c0 -9 -7 -18 -13 -21 -7 -2 -10 -8 -5 -12 11 -13 29 11
24 31 -4 16 -5 16 -6 2z"/>
<path d="M6035 3720 c-10 -11 -13 -20 -8 -20 13 0 38 29 31 35 -3 3 -13 -4
-23 -15z"/>
<path d="M7547 3720 c-3 -14 -14 -20 -31 -20 -14 0 -53 -9 -86 -21 -33 -11
-64 -18 -69 -15 -5 4 -13 1 -17 -5 -3 -6 0 -15 7 -20 10 -6 6 -9 -13 -9 -19 0
-28 5 -28 16 0 8 -5 12 -10 9 -6 -4 -8 -11 -4 -16 3 -5 0 -16 -6 -25 -7 -8
-15 -46 -18 -84 l-5 -70 65 0 c65 0 128 15 128 30 0 15 81 105 92 102 14 -4
37 28 38 53 1 20 1 20 9 0 8 -19 8 -19 19 2 18 33 15 71 -7 83 -31 16 -58 12
-64 -10z"/>
<path d="M3161 3711 c-8 -5 -9 -11 -3 -15 13 -8 42 3 42 15 0 11 -21 11 -39 0z"/>
<path d="M2692 3698 c-13 -6 -21 -17 -18 -24 8 -20 -11 -27 -22 -8 -7 12 -16
14 -40 7 -18 -4 -32 -12 -31 -17 0 -5 -17 -19 -38 -32 -22 -12 -45 -34 -53
-48 -7 -14 -21 -26 -31 -26 -10 0 -21 -4 -24 -10 -10 -16 -28 -12 -21 5 3 8 2
15 -3 15 -21 0 -63 -213 -47 -239 5 -7 24 -2 59 15 91 47 168 108 192 155 19
35 90 72 142 73 40 1 41 2 18 14 -27 14 -24 36 6 53 31 16 23 44 -19 62 -44
19 -40 19 -70 5z"/>
<path d="M8546 3695 c4 -8 8 -15 10 -15 2 0 4 7 4 15 0 8 -4 15 -10 15 -5 0
-7 -7 -4 -15z"/>
<path d="M5095 3690 c-3 -5 -2 -10 4 -10 5 0 13 5 16 10 3 6 2 10 -4 10 -5 0
-13 -4 -16 -10z"/>
<path d="M5086 3661 c-4 -7 -5 -15 -2 -18 9 -9 19 4 14 18 -4 11 -6 11 -12 0z"/>
<path d="M5930 3643 c-8 -3 -40 -25 -70 -49 -30 -24 -82 -57 -115 -73 -64 -33
-56 -41 15 -16 47 17 175 107 184 130 3 8 4 15 3 14 -1 0 -9 -3 -17 -6z"/>
<path d="M6029 3591 c-24 -22 -39 -40 -33 -41 15 0 90 67 83 74 -3 4 -26 -12
-50 -33z"/>
<path d="M5140 3609 c0 -5 4 -9 9 -9 5 0 16 -3 25 -6 9 -3 16 -2 16 4 0 5 -11
12 -25 14 -14 3 -25 1 -25 -3z"/>
<path d="M5456 3573 c-6 -14 -5 -15 5 -6 7 7 10 15 7 18 -3 3 -9 -2 -12 -12z"/>
<path d="M5606 3581 c-4 -5 3 -7 14 -4 23 6 26 13 6 13 -8 0 -17 -4 -20 -9z"/>
<path d="M5315 3570 c3 -5 23 -10 43 -9 30 0 33 2 17 9 -28 12 -67 12 -60 0z"/>
<path d="M5904 3512 c-16 -9 -50 -31 -75 -49 -25 -17 -70 -39 -100 -48 -30 -9
-65 -22 -77 -28 -42 -20 -6 -19 57 3 33 11 68 20 77 20 9 0 44 20 78 44 90 64
115 100 40 58z"/>
<path d="M2740 3510 c0 -5 5 -10 10 -10 6 0 10 5 10 10 0 6 -4 10 -10 10 -5 0
-10 -4 -10 -10z"/>
<path d="M5105 3500 c4 -6 11 -8 16 -5 14 9 11 15 -7 15 -8 0 -12 -5 -9 -10z"/>
<path d="M5197 3474 c3 -8 12 -13 20 -10 8 3 22 6 31 7 10 1 7 4 -8 9 -40 13
-50 11 -43 -6z"/>
<path d="M5635 3480 c-13 -5 -14 -9 -5 -9 8 0 24 4 35 9 13 5 14 9 5 9 -8 0
-24 -4 -35 -9z"/>
<path d="M5300 3461 c0 -17 18 -21 24 -6 3 9 0 15 -9 15 -8 0 -15 -4 -15 -9z"/>
<path d="M4794 3435 c-18 -14 -17 -15 11 -9 37 8 57 24 29 24 -11 0 -29 -7
-40 -15z"/>
<path d="M5020 3401 c14 -11 30 -21 37 -21 6 0 13 -5 15 -12 2 -6 10 -8 16 -4
23 14 -1 32 -68 50 l-25 7 25 -20z"/>
<path d="M4833 3304 c-20 -42 -35 -60 -59 -70 -18 -8 -37 -21 -42 -30 -5 -9
-13 -15 -18 -14 -5 1 -10 -4 -13 -11 -2 -7 1 -9 9 -4 10 6 12 4 7 -9 -5 -12 0
-19 18 -26 41 -16 25 -60 -22 -60 -16 0 -23 6 -23 20 0 23 -3 24 -28 11 -9 -5
-25 -12 -34 -15 -10 -3 -18 -15 -18 -28 0 -19 -2 -20 -10 -8 -8 12 -10 9 -10
-13 0 -27 2 -28 30 -22 17 4 43 13 58 20 15 7 48 23 75 34 28 13 47 28 47 37
0 13 7 15 29 11 15 -3 33 -1 39 5 7 7 17 3 33 -13 29 -29 68 -51 79 -44 13 8
62 -14 76 -33 12 -15 13 -14 14 11 0 16 6 35 14 43 18 17 27 18 23 2 -1 -7 8
-14 21 -16 21 -3 23 0 20 35 -3 37 -4 38 -40 35 -20 -1 -39 2 -42 7 -8 12 21
41 40 41 17 0 18 22 2 38 -9 9 -16 8 -29 -4 -20 -18 -39 0 -20 19 20 20 12 31
-9 12 -11 -10 -17 -22 -14 -27 4 -6 -3 -5 -15 1 -26 14 -26 19 0 47 l21 22
-28 15 c-16 8 -39 18 -51 21 -20 7 -23 4 -23 -23 0 -27 -3 -31 -28 -31 -15 0
-33 -5 -40 -12 -21 -21 -26 1 -9 37 20 42 20 45 7 45 -6 0 -22 -25 -37 -56z
m120 -81 c20 -12 -11 -21 -60 -16 -38 4 -53 10 -53 21 0 12 9 13 52 8 28 -4
56 -10 61 -13z m47 -113 c0 -5 -8 -10 -17 -10 -15 0 -16 2 -3 10 19 12 20 12
20 0z m50 -20 c0 -5 -4 -10 -9 -10 -6 0 -13 5 -16 10 -3 6 1 10 9 10 9 0 16
-4 16 -10z"/>
<path d="M4800 3340 c0 -5 4 -10 9 -10 6 0 13 5 16 10 3 6 -1 10 -9 10 -9 0
-16 -4 -16 -10z"/>
<path d="M4750 3314 c0 -8 5 -12 10 -9 6 4 8 11 5 16 -9 14 -15 11 -15 -7z"/>
<path d="M8465 3320 c-3 -5 -1 -10 4 -10 6 0 11 5 11 10 0 6 -2 10 -4 10 -3 0
-8 -4 -11 -10z"/>
<path d="M3670 3310 c-9 -6 -10 -10 -3 -10 6 0 15 5 18 10 8 12 4 12 -15 0z"/>
<path d="M4684 3289 c-13 -16 -15 -23 -7 -26 13 -5 24 -5 21 0 -1 1 4 12 11
25 15 28 0 29 -25 1z"/>
<path d="M4519 3236 c-12 -24 -19 -50 -16 -57 3 -9 9 -3 16 16 7 17 18 42 26
58 7 15 10 27 5 27 -5 0 -18 -20 -31 -44z"/>
<path d="M3760 3240 c0 -5 7 -10 15 -10 8 0 15 5 15 10 0 6 -7 10 -15 10 -8 0
-15 -4 -15 -10z"/>
<path d="M4621 3219 c-27 -44 -28 -63 -2 -49 16 8 22 6 30 -7 9 -16 12 -16 21
-3 16 24 12 55 -9 75 -19 17 -21 16 -40 -16z"/>
<path d="M4481 3214 c0 -11 3 -14 6 -6 3 7 2 16 -1 19 -3 4 -6 -2 -5 -13z"/>
<path d="M4882 3031 c-17 -55 -16 -58 20 -63 24 -4 38 1 57 18 30 28 41 30 41
10 0 -20 20 -31 29 -17 5 7 14 5 29 -9 11 -11 26 -20 31 -20 14 0 43 58 36 70
-8 13 -48 13 -62 -1 -8 -8 -32 -2 -88 20 -42 17 -78 31 -79 31 -2 0 -8 -17
-14 -39z"/>
<path d="M8160 3049 c0 -11 5 -17 10 -14 6 3 10 13 10 21 0 8 -4 14 -10 14 -5
0 -10 -9 -10 -21z"/>
<path d="M8280 3056 c0 -22 17 -28 24 -10 9 22 8 24 -9 24 -8 0 -15 -6 -15
-14z"/>
<path d="M8125 3048 c-4 -10 -4 -26 0 -35 8 -17 8 -17 12 0 3 9 3 25 0 35 -4
16 -4 16 -12 0z"/>
<path d="M4765 3035 c-22 -7 -66 -21 -97 -31 -61 -18 -67 -26 -43 -61 13 -18
20 -20 52 -12 47 10 61 -2 40 -34 -14 -22 -14 -24 4 -35 29 -18 56 -14 62 9 3
11 15 23 26 26 13 3 18 10 14 21 -4 9 -2 13 4 9 6 -4 19 -4 28 -1 32 13 -25
33 -92 34 -35 0 -63 4 -63 9 0 14 41 21 83 14 33 -5 37 -3 37 15 0 11 3 27 6
36 7 19 -6 19 -61 1z"/>
<path d="M3920 3010 c0 -5 5 -10 10 -10 6 0 10 5 10 10 0 6 -4 10 -10 10 -5 0
-10 -4 -10 -10z"/>
<path d="M5005 2938 c4 -16 3 -19 -3 -10 -8 12 -13 12 -31 1 -22 -15 -28 -29
-11 -29 6 0 10 -9 10 -20 0 -25 6 -25 47 3 39 26 40 30 13 57 -26 26 -33 25
-25 -2z"/>
<path d="M4876 2914 c-5 -14 -4 -15 9 -4 17 14 19 20 6 20 -5 0 -12 -7 -15
-16z"/>
<path d="M6160 2920 c0 -5 5 -10 10 -10 6 0 10 5 10 10 0 6 -4 10 -10 10 -5 0
-10 -4 -10 -10z"/>
<path d="M5565 2900 c3 -5 8 -10 11 -10 2 0 4 5 4 10 0 6 -5 10 -11 10 -5 0
-7 -4 -4 -10z"/>
<path d="M4888 2869 c-45 -33 -36 -41 35 -30 4 0 7 12 7 26 0 30 -7 31 -42 4z"/>
<path d="M8072 2645 c0 -16 2 -22 5 -12 2 9 2 23 0 30 -3 6 -5 -1 -5 -18z"/>
<path d="M7770 2499 c0 -5 5 -7 10 -4 6 3 10 8 10 11 0 2 -4 4 -10 4 -5 0 -10
-5 -10 -11z"/>
</g>
</svg>
