<svg width="120" height="29" viewBox="0 0 120 29" fill="none" xmlns="http://www.w3.org/2000/svg">
<path d="M0.399994 27.95V0.590019H5.03599L14.08 18.754L23.124 0.590019H27.76V27.95H22.934V11.61L14.992 27.95H13.168L5.22599 11.61V27.95H0.399994Z" fill="white"/>
<path d="M81.8154 28.52C79.0794 28.52 76.736 27.9247 74.7854 26.734C72.8347 25.5307 71.3337 23.8587 70.2824 21.718C69.2437 19.5774 68.7244 17.0947 68.7244 14.27C68.7244 11.4454 69.2437 8.96269 70.2824 6.82202C71.3337 4.68135 72.8347 3.01569 74.7854 1.82502C76.736 0.621686 79.0794 0.0200195 81.8154 0.0200195C84.9694 0.0200195 87.5977 0.811686 89.7004 2.39502C91.803 3.96569 93.2787 6.08735 94.1274 8.76002L89.5104 10.033C88.9784 8.24702 88.0727 6.85368 86.7934 5.85302C85.514 4.83969 83.8547 4.33302 81.8154 4.33302C79.9787 4.33302 78.446 4.74469 77.2174 5.56802C76.0014 6.39135 75.083 7.55035 74.4624 9.04502C73.8544 10.527 73.544 12.2687 73.5314 14.27C73.5314 16.2714 73.8354 18.0194 74.4434 19.514C75.064 20.996 75.9887 22.1487 77.2174 22.972C78.446 23.7954 79.9787 24.207 81.8154 24.207C83.8547 24.207 85.514 23.7004 86.7934 22.687C88.0727 21.6737 88.9784 20.2804 89.5104 18.507L94.1274 19.78C93.2787 22.4527 91.803 24.5807 89.7004 26.164C87.5977 27.7347 84.9694 28.52 81.8154 28.52Z" fill="white"/>
<path d="M50.2962 27.95V0.590019H67.9662V4.88402H54.8752V11.629H65.6862V15.923H54.8752V23.656H67.9662V27.95H50.2962Z" fill="white"/>
<path d="M97.1925 27.95V0.590019H101.771V12.104H114.729V0.590019L119.289 0.0200195V27.95H114.729V16.398H101.771V27.95H97.1925Z" fill="white"/>
<path d="M36.6941 27.95V5.41602H28.0681V0.590019H50.4881V5.41602H41.8621V27.95H36.6941Z" fill="white"/>
</svg>
